<svg xmlns="http://www.w3.org/2000/svg" xmlns:xlink="http://www.w3.org/1999/xlink" viewBox="0 0 500 500"><defs><radialGradient id="A" gradientUnits="userSpaceOnUse" cx="364.4" cy="376.8" r="34.9" gradientTransform="matrix(1 0 0 1.6376 0 -251)"><stop style="stop-color:#f6ebeb;stop-opacity:.67708" offset="0"/><stop style="stop-color:#f4eded;stop-opacity:0" offset="1"/></radialGradient><radialGradient id="B" gradientUnits="userSpaceOnUse" cx="362.9" cy="378.7" r="34.9" gradientTransform="matrix(1 0 0 1.6376 0 -251)"><stop style="stop-color:#f6ebeb;stop-opacity:.46087" offset="0"/><stop style="stop-color:#f4eded;stop-opacity:0" offset="1"/></radialGradient><radialGradient id="C" gradientUnits="userSpaceOnUse" cy="378.4" cx="363.4" gradientTransform="matrix(1 0 0 1.6376 0 -251)" r="34.9"><stop style="stop-color:#f6ebeb;stop-opacity:.67708" offset="0"/><stop style="stop-color:#f4eded;stop-opacity:0" offset="1"/></radialGradient><radialGradient id="D" gradientUnits="userSpaceOnUse" cx="360.5" cy="376.4" r="34.9" gradientTransform="matrix(1 0 0 1.6376 0 -251)"><stop style="stop-color:#f6ebeb;stop-opacity:.67708" offset="0"/><stop style="stop-color:#f4eded;stop-opacity:0" offset="1"/></radialGradient><radialGradient id="E" gradientUnits="userSpaceOnUse" cx="362.3" cy="374.8" r="34.9" gradientTransform="matrix(1 0 0 1.6376 0 -251)"><stop style="stop-color:#f6ebeb;stop-opacity:.67708" offset="0"/><stop style="stop-color:#f4eded;stop-opacity:0" offset="1"/></radialGradient><radialGradient id="F" gradientUnits="userSpaceOnUse" cy="383.8" cx="37.2" r="58.3"><stop style="stop-color:#000" offset="0"/><stop style="stop-color:#252325;stop-opacity:0" offset=".9"/><stop style="stop-color:#0f060f;stop-opacity:.95652" offset="1"/></radialGradient><linearGradient id="G" y2="632.5" gradientUnits="userSpaceOnUse" x2="356.5" gradientTransform="translate(-2 -2) scale(1.005)" y1="274.1" x1="355.8"><stop style="stop-color:#5c5858" offset="0"/><stop style="stop-color:#fff" offset="1"/></linearGradient><linearGradient id="H" y2="581.9" gradientUnits="userSpaceOnUse" y1="366.9" gradientTransform="matrix(1 0 0 1.0029 0 -2)" x2="536" x1="176.2"><stop style="stop-color:#6d6969" offset="0"/><stop style="stop-color:#fff" offset=".4"/><stop style="stop-color:#6d6969" offset="1"/></linearGradient></defs><path style="stroke:#000;stroke-width:.75759;fill:none" d="M-57 175a45 45 0 1 1-90 0 45 45 0 1 1 90 0z" transform="translate(651 -428) scale(3.9599)"/><g transform="translate(-113 -214)"><path d="m570 654-10 2h-9l-12-1-13-3-10-3-14-7-10-6-10-5-8-4-7-3-7-3-11-6-17-7-10-4-14-3-9-2 7-2 4-2 6-3 6-3 4-3 18 1 5 1 8 2 9 5 12 4 10 3 8 4 8 4 8 4 6 2 5 2 7 2 7 1 5 1h6l5-1h8l3-1 2 10 2 12z" style="fill:#000"/><path d="m522 644 5 2 7 1 6 1 8 1h7l6-1h4l2-1-2-6-1-6v-4l-1-4-5 1-6 1h-10l-7-1-4-1-5-1-4-2v15zM519 642l1-18-19-9-16-8-5 16 17 9 13 6zM469 618l8 3 5-14zM441 592l-6 4-5 2-8 2-7 1h-8l-7-2 7-2 4-2 5-3 4-1z" style="fill:#e6e6e6"/><path id="a" style="fill:#fff" d="m561 626-1-3 2-1 1 3z"/><use id="b" xlink:href="#a" transform="translate(-4 1)" height="1052.4" width="744.1" y="0" x="0"/><use id="c" xlink:href="#b" transform="rotate(5 549 573)" height="1052.4" width="744.1" y="0" x="0"/><use id="d" xlink:href="#c" transform="rotate(5 548 574)" height="1052.4" width="744.1" y="0" x="0"/><use id="e" xlink:href="#d" transform="rotate(5 548 571)" height="1052.4" width="744.1" y="0" x="0"/><use id="f" xlink:href="#e" transform="rotate(3 548 528)" height="1052.4" width="744.1" y="0" x="0"/><use id="g" xlink:href="#f" transform="translate(-5 -1)" height="1052.4" width="744.1" y="0" x="0"/><use id="h" xlink:href="#g" transform="rotate(6 542 577)" height="1052.4" width="744.1" y="0" x="0"/><use id="i" xlink:href="#h" transform="translate(-5 -1)" height="1052.4" width="744.1" y="0" x="0"/><use id="j" xlink:href="#i" transform="rotate(6 536 578)" height="1052.4" width="744.1" y="0" x="0"/><use id="k" xlink:href="#j" transform="translate(-5 -2)" height="1052.4" width="744.1" y="0" x="0"/><use id="l" xlink:href="#k" transform="translate(-4 -2)" height="1052.4" width="744.1" y="0" x="0"/><use id="m" xlink:href="#l" transform="rotate(3 546 528)" height="1052.4" width="744.1" y="0" x="0"/><use id="n" xlink:href="#m" transform="translate(-4 -2)" height="1052.4" width="744.1" y="0" x="0"/><use id="o" xlink:href="#n" transform="rotate(3 543 526)" height="1052.4" width="744.1" y="0" x="0"/><use id="p" xlink:href="#o" transform="translate(-5 -2)" height="1052.4" width="744.1" y="0" x="0"/><use id="q" xlink:href="#p" transform="translate(-4 -2)" height="1052.4" width="744.1" y="0" x="0"/><use xlink:href="#a" transform="translate(4 27)" height="1052.4" width="744.1"/><use xlink:href="#b" transform="translate(4 27)" height="1052.4" width="744.1"/><use xlink:href="#c" transform="translate(4 27)" height="1052.4" width="744.1"/><use xlink:href="#d" transform="translate(4 27)" height="1052.4" width="744.1"/><use xlink:href="#e" transform="translate(4 27)" height="1052.4" width="744.1"/><use xlink:href="#f" transform="translate(4 27)" height="1052.4" width="744.1"/><use xlink:href="#g" transform="translate(4 28)" height="1052.4" width="744.1"/><use xlink:href="#h" transform="translate(4 28)" height="1052.4" width="744.1"/><use xlink:href="#i" transform="translate(4 27)" height="1052.4" width="744.1"/><use xlink:href="#j" transform="translate(4 27)" height="1052.4" width="744.1"/><use xlink:href="#k" transform="translate(4 27)" height="1052.4" width="744.1"/><use xlink:href="#l" transform="translate(4 27)" height="1052.4" width="744.1"/><use xlink:href="#m" transform="translate(4 27)" height="1052.4" width="744.1"/><use xlink:href="#n" transform="translate(4 27)" height="1052.4" width="744.1"/><use xlink:href="#o" transform="translate(4 27)" height="1052.4" width="744.1"/><use xlink:href="#p" transform="translate(4 27)" height="1052.4" width="744.1"/><use id="r" xlink:href="#q" transform="translate(4 27)" height="1052.4" width="744.1" y="0" x="0"/><use id="s" xlink:href="#r" transform="translate(-5 -3)" height="1052.4" width="744.1" y="0" x="0"/><use id="t" xlink:href="#s" transform="translate(-5 -2)" height="1052.4" width="744.1" y="0" x="0"/><use id="u" xlink:href="#t" transform="rotate(-3 437 706)" height="1052.4" width="744.1" y="0" x="0"/><use id="v" xlink:href="#u" transform="rotate(-3 432 711)" height="1052.4" width="744.1" y="0" x="0"/><use xlink:href="#v" transform="rotate(3 510 535)" height="1052.4" width="744.1"/><use id="w" xlink:href="#p" transform="matrix(-.4263 -.29569 -1.4613 .60862 1523 365)" height="1052.4" width="744.1" y="0" x="0"/><use id="x" xlink:href="#w" transform="translate(4)" height="1052.4" width="744.1" y="0" x="0"/><use id="y" xlink:href="#x" transform="translate(4)" height="1052.4" width="744.1" y="0" x="0"/><use id="z" xlink:href="#y" transform="translate(5)" height="1052.4" width="744.1" y="0" x="0"/><use xlink:href="#z" transform="translate(5)" height="1052.4" width="744.1"/><path style="stroke-width:1.033;fill:#000" d="M324 308a148 148 0 1 1-295 0 148 148 0 1 1 295 0z" transform="translate(203 210) scale(.86957)"/><path style="stroke:#666;stroke-width:1.0327;fill:none" d="M324 308a148 148 0 1 1-295 0 148 148 0 1 1 295 0z" transform="translate(221 240) scale(.76982)"/><path style="stroke:#666;stroke-width:1.0327;fill:none" d="M324 308a148 148 0 1 1-295 0 148 148 0 1 1 295 0z" transform="translate(235 264) scale(.69284)"/><path style="stroke:#666;stroke-width:1.0327;fill:none" d="M324 308a148 148 0 1 1-295 0 148 148 0 1 1 295 0z" transform="translate(268 322) scale(.50508)"/><path style="stroke:#666;stroke-width:1.0327;fill:none" d="M324 308a148 148 0 1 1-295 0 148 148 0 1 1 295 0z" transform="translate(292 364) scale(.3682)"/><path d="m283 581 70-72" style="stroke:#4d4d4d;stroke-width:.40799;fill:#666"/><path d="m447 569-74-78" style="stroke:#4d4d4d;stroke-width:.43268;fill:#666"/><path d="m343 463-71-71" style="stroke:#4d4d4d;stroke-width:.40444;fill:#666"/><path d="m359 504 102-102" style="stroke:#4d4d4d;stroke-width:.58046;fill:#666"/><path style="opacity:.66372;color:#000;fill:url(#A)" d="M396 391a33 33 0 1 1-67 0 33 33 0 1 1 67 0z" transform="matrix(-1.0072 -.47629 .55608 -1.176 449 1187)"/><path style="opacity:.66372;color:#000;fill:url(#B)" d="M396 391a33 33 0 1 1-67 0 33 33 0 1 1 67 0z" transform="matrix(.31449 -1.0689 1.2479 .36718 -338 691)"/><path style="stroke-width:1.033;fill:#ccc" d="M359 323a153 153 0 1 0 0 306 153 153 0 0 0 0-306zm-1 8a48 48 0 1 1 0 97 48 48 0 0 1 0-97zm-93 67a48 48 0 1 1 0 96 48 48 0 0 1 0-96zm186 1a48 48 0 1 1 0 96 48 48 0 0 1 0-96zm-113 42c4 0 6 3 6 7 0 3-2 6-6 6a6 6 0 1 1 0-13zm41 1c3 0 6 3 6 6a6 6 0 1 1-13 0c0-3 3-6 7-6zm-21 13h1a21 21 0 1 1-1 0zm33 25a6 6 0 1 1 0 13 6 6 0 0 1 0-13zm-65 1a6 6 0 1 1 0 12 6 6 0 0 1 0-12zm32 23c4 0 7 2 7 6 0 3-3 6-7 6s-6-3-6-6 3-6 6-6zm-57 3a48 48 0 1 1 0 97 48 48 0 0 1 0-97zm115 0a48 48 0 1 1 0 97 48 48 0 0 1 0-97z"/><path style="opacity:.66372;color:#000;fill:url(#C)" d="M396 391a33 33 0 1 1-67 0 33 33 0 1 1 67 0z" transform="matrix(1.1142 0 0 1.3008 -45 -127)"/><path style="opacity:.66372;color:#000;fill:url(#D)" d="M396 391a33 33 0 1 1-67 0 33 33 0 1 1 67 0z" transform="matrix(.18131 1.0993 -1.2835 .21169 886 -34)"/><path style="opacity:.66372;color:#000;fill:url(#E)" d="M396 391a33 33 0 1 1-67 0 33 33 0 1 1 67 0z" transform="matrix(-.72571 .84541 -.98705 -.8473 1064 578)"/><path style="opacity:.66372;color:#000;stroke:url(#F);stroke-width:6.8797;fill:none" d="M92 384a55 55 0 1 1-110 0 55 55 0 1 1 110 0z" transform="translate(230 85) scale(.94144)"/><path style="opacity:.66372;stroke-width:6.8797;color:#000;stroke:url(#F);fill:none" d="M92 384a55 55 0 1 1-110 0 55 55 0 1 1 110 0z" transform="translate(324 18) scale(.94144)"/><path style="opacity:.66372;stroke-width:6.8797;color:#000;stroke:url(#F);fill:none" d="M92 384a55 55 0 1 1-110 0 55 55 0 1 1 110 0z" transform="translate(417 86) scale(.94144)"/><path style="opacity:.66372;stroke-width:6.8797;color:#000;stroke:url(#F);fill:none" d="M92 384a55 55 0 1 1-110 0 55 55 0 1 1 110 0z" transform="translate(381 195) scale(.94144)"/><path style="opacity:.66372;stroke-width:6.8797;color:#000;stroke:url(#F);fill:none" d="M92 384a55 55 0 1 1-110 0 55 55 0 1 1 110 0z" transform="translate(266 194) scale(.94144)"/><path d="M359 315a162 162 0 1 0 0 323 162 162 0 0 0 0-323zm0 9a152 152 0 1 1 0 305 152 152 0 0 1 0-305z" style="fill:url(#G)"/><path d="M359 297a179 179 0 1 0 0 358 179 179 0 0 0 0-358zm0 18a161 161 0 1 1 0 322 161 161 0 0 1 0-322z" style="fill:url(#H)"/></g></svg>